<svg xmlns="http://www.w3.org/2000/svg" width="91.348" height="78.682" viewBox="0 0 91.348 78.682">
    <g transform="translate(-692.519 -4249.241)">
        <g transform="translate(693.033 4249.746)">
            <path d="M596.944,172.434a1.391,1.391,0,0,1-1.193-.676L585.234,154.22l-19.647,5.343a1.39,1.39,0,0,1-1.593-.689l-22.967-43.2a1.39,1.39,0,0,1,1.042-2.03l19.517-2.626a1.391,1.391,0,0,1,1.378.663l23.572,39.309,27.377-7.445-9.143-12.888a1.39,1.39,0,0,1,.814-2.158l12.81-3.025a1.389,1.389,0,0,1,1.4.484l11.085,13.839a1.39,1.39,0,0,1-.721,2.211l-11.677,3.175,10.181,14.35a1.391,1.391,0,0,1-.674,2.117L597.4,172.356A1.392,1.392,0,0,1,596.944,172.434Zm-8.922-18.972,9.531,15.895,27.776-9.726-9.7-13.675Zm-43.6-37.334,21.508,40.46,17.82-4.846-22.7-37.852Zm63.811,14.6,8.54,12.036,10.616-2.887-9.21-11.5Z" transform="translate(-540.865 -111)" stroke="#FFF" stroke-miterlimit="10" stroke-width="1"/>
        </g><g transform="translate(712.943 4315.169) "  stroke="#FFF"><path d="M595.15,289.38h1.163V301.9H595.15Z"  stroke="#FFF" transform="translate(-595.15 -289.38)"/><path d="M613.205,298.487v9.034H612.06v-1.553a4.985,4.985,0,0,1-1.64,1.337,4.58,4.58,0,0,1-5.264-.942,4.663,4.663,0,0,1-1.358-3.384,4.577,4.577,0,0,1,1.37-3.338,4.466,4.466,0,0,1,3.3-1.387,4.264,4.264,0,0,1,2.014.473,4.587,4.587,0,0,1,1.582,1.42v-1.661Zm-4.646.888a3.5,3.5,0,0,0-3.1,1.817,3.659,3.659,0,0,0,0,3.649,3.559,3.559,0,0,0,1.315,1.356,3.435,3.435,0,0,0,1.771.485,3.633,3.633,0,0,0,1.808-.481,3.365,3.365,0,0,0,1.314-1.3,3.72,3.72,0,0,0,.46-1.85,3.6,3.6,0,0,0-1.032-2.621A3.421,3.421,0,0,0,608.56,299.375Z" stroke="#FFF" transform="translate(-600.626 -294.999)"/><path  stroke="#FFF" d="M635.379,298.487h1.187v1.32a4.176,4.176,0,0,1,1.121-1.166,2.212,2.212,0,0,1,1.229-.386,2.122,2.122,0,0,1,1.029.307l-.606.98a1.624,1.624,0,0,0-.615-.158,1.68,1.68,0,0,0-1.121.478,3.019,3.019,0,0,0-.822,1.482,14.2,14.2,0,0,0-.216,3.122v3.056h-1.187Z" transform="translate(-620.625 -294.999)"/><path  stroke="#FFF" d="M658.822,298.487v9.034h-1.146v-1.553a4.98,4.98,0,0,1-1.64,1.337,4.58,4.58,0,0,1-5.264-.942,4.664,4.664,0,0,1-1.357-3.384,4.578,4.578,0,0,1,1.37-3.338,4.466,4.466,0,0,1,3.3-1.387,4.262,4.262,0,0,1,2.013.473,4.58,4.58,0,0,1,1.582,1.42v-1.661Zm-4.645.888a3.5,3.5,0,0,0-3.1,1.817,3.659,3.659,0,0,0,0,3.649A3.56,3.56,0,0,0,652.4,306.2a3.436,3.436,0,0,0,1.771.485,3.631,3.631,0,0,0,1.808-.481,3.366,3.366,0,0,0,1.314-1.3,3.721,3.721,0,0,0,.46-1.85,3.6,3.6,0,0,0-1.033-2.621A3.42,3.42,0,0,0,654.177,299.375Z" transform="translate(-629.513 -294.999)"/><path d="M679.864,298.888H681.1l3.032,6.585,3-6.585h1.246l-4.135,9.034h-.216Z"  stroke="#FFF" transform="translate(-648.794 -295.401)"/><path d="M714.736,304.523l.98.515a5.343,5.343,0,0,1-1.114,1.528,4.423,4.423,0,0,1-1.421.885,4.965,4.965,0,0,1-1.787.3,4.317,4.317,0,0,1-3.457-1.449,4.888,4.888,0,0,1-1.247-3.276,4.828,4.828,0,0,1,1.056-3.064,4.315,4.315,0,0,1,3.582-1.711,4.456,4.456,0,0,1,3.69,1.752,4.889,4.889,0,0,1,1,3.089h-8.128a3.679,3.679,0,0,0,1.006,2.581,3.208,3.208,0,0,0,2.4,1.006,3.866,3.866,0,0,0,1.343-.24,3.537,3.537,0,0,0,1.109-.637A5.426,5.426,0,0,0,714.736,304.523Zm0-2.433a3.859,3.859,0,0,0-.677-1.486,3.209,3.209,0,0,0-1.177-.9,3.6,3.6,0,0,0-1.538-.34,3.312,3.312,0,0,0-2.286.855A3.864,3.864,0,0,0,708,302.09Z"   stroke="#FFF" transform="translate(-665.781 -294.999)"/><path d="M737.546,289.38h1.163V301.9h-1.163Z"  stroke="#FFF" transform="translate(-685.321 -289.38)"/></g></g></svg>
